<svg xmlns="http://www.w3.org/2000/svg" id="Camada_1" data-name="Camada 1" viewBox="0 0 256 121.7"><defs><style>      .cls-1 {        fill: #37f5a0;      }      .cls-1, .cls-2, .cls-3 {        stroke-width: 0px;      }      .cls-2 {        fill: #121212;      }      .cls-3 {        fill: #fff;      }    </style></defs><path class="cls-3" d="M0,50.9c0-.3,0-.5,0-.8,0-9.3,0-18.6,0-27.9,0-3.6.6-7.1,2-10.4C4.3,6.3,8.3,2.6,13.9.9c8.2-2.5,16.4-2.4,24.4.7,7.3,2.8,11.3,9.1,10.7,17-.4,5.3-3.5,8.8-8.1,11.1-.3.1-.6.3-.9.4-.3.1-.6.2-1,.4,7.6,4.8,9.9,12.1,10.5,20.4h-10.8c-.2-1.6-.4-3.2-.7-4.8-1.2-6.3-5.8-10.7-12.2-11-4.9-.3-9.9,0-15,0v15.9H0ZM10.6,25c.4,0,.5.1.6.1,5.2,0,10.5,0,15.7,0,2.6,0,5.3-.4,7.7-1.6,2-1.1,3.3-2.6,3.5-5,.3-3.9-1.5-6.9-5.3-8.2-4.9-1.6-10-1.7-14.9,0-3.4,1.1-5.8,3.6-6.5,7.1-.5,2.5-.5,5-.7,7.6Z"></path><path class="cls-3" d="M152.6,6.2c-2,2.6-3.9,5.2-5.9,7.7-1.7-.9-3.2-1.9-4.9-2.6-5.6-2.4-11.4-2.8-17.3-1.3-1.3.3-2.5,1-3.6,1.7-1.4,1-2,2.4-2,4.2,0,1.6.8,2.9,2.3,3.4,1.4.5,2.9.8,4.4.9,4,.1,8,0,12,0,3.3,0,6.6.6,9.6,2.1,4.7,2.2,7,6.1,7.3,11.1.4,7.8-3.5,13.5-10.9,16.3-5.5,2-11.1,2.4-16.9,1.9-6.2-.5-12-2.3-17.2-5.7-1.7-1.1-3.2-2.3-4.9-3.6,2.5-2.7,4.8-5.3,7-7.7,2.2,1.5,4.2,3,6.4,4.2,6.4,3.4,13.2,3.9,20.2,1.8,1.3-.4,2.5-1.2,3.6-2,1.6-1.3,2.1-3.1,1.8-5.1-.2-1.4-1.1-2.3-2.3-2.7-1.5-.4-3.1-.7-4.6-.7-3.5-.1-7.1,0-10.6,0-3.4,0-6.8-.4-10-1.7-4.2-1.7-6.9-4.7-7.7-9.2-.8-4.4-.2-8.6,2.6-12.2,2.1-2.7,4.9-4.4,8-5.6,6.4-2.5,12.9-2.6,19.5-1.4,4.6.8,8.8,2.5,12.7,5.1.4.3.8.6,1.2.8,0,0,.1.1.2.3Z"></path><path class="cls-3" d="M98.9.2v9.9c-.4,0-.7,0-1.1,0-5.6,0-11.1,0-16.7,0-2.6,0-5.1.2-7.6,1.1-4,1.5-6.2,4.6-6.2,9h31.3v9.9h-31.3c-.2,5.1,2.7,9,8,10.2,2,.5,4.1.6,6.1.6,5.4,0,10.8,0,16.2,0,.4,0,.8,0,1.2,0v9.9c-.3,0-.6,0-.8,0-5.8,0-11.5,0-17.3,0-4.4,0-8.7-.6-12.8-2.5-6.1-2.8-9.9-7.6-11-14.3-1-6.1-1.1-12.3.2-18.4,1.7-7.6,6.6-12.2,14-14.4,3.1-.9,6.3-1.2,9.5-1.3,5.8,0,11.6,0,17.3,0,.2,0,.4,0,.8,0Z"></path><path class="cls-3" d="M203.2,10.1c-3.8,0-7.5,0-11.3,0-3.3,0-6.6,0-9.9.2-1.6.1-3.2.6-4.7,1.2-3.8,1.6-5.4,4.6-5.6,8.8h31.4v9.9h-31.3c-.2,5.1,2.7,9,8,10.2,2,.5,4.1.6,6.1.6,5.4,0,10.8,0,16.2,0,.4,0,.8,0,1.2,0v9.9c-.3,0-.6,0-.8,0-5.8,0-11.5,0-17.3,0-4.4,0-8.7-.6-12.8-2.5-6.1-2.8-9.9-7.6-11-14.3-1-6.1-1.1-12.3.2-18.4,1.7-7.6,6.6-12.2,14-14.4,3.1-.9,6.3-1.2,9.5-1.3,5.8,0,11.6,0,17.3,0,.2,0,.4,0,.7,0v9.9Z"></path><path class="cls-3" d="M255.1.2v9.9h-18v40.8h-10.7V10.2h-18V.2h46.8Z"></path><g><path class="cls-3" d="M23.8,109.6c4.3-1.5,7.7-3.7,10-6.5,2.3-2.8,3.5-6.4,3.5-10.6v-22.6h10.4v22.8c0,3.5-.6,6.8-1.8,9.7-1.2,2.9-2.9,5.5-5,7.8s-4.6,4.2-7.5,5.9c-2.9,1.6-6.1,2.9-9.5,3.7-3.4-.8-6.6-2.1-9.5-3.7-2.9-1.6-5.4-3.6-7.5-5.9-2.1-2.3-3.8-4.9-5-7.8C.6,99.5,0,96.3,0,92.7v-22.8h10.4v22.6c0,4.2,1.2,7.7,3.5,10.6,2.3,2.8,5.7,5,10,6.5Z"></path><path class="cls-3" d="M66.9,69.9v49h-10.4v-49h10.4Z"></path><path class="cls-3" d="M76.2,118.9v-27.5c0-7.1,2-12.6,6.1-16.5,4-3.9,10.1-5.8,18.1-5.8s7.7.5,10.7,1.5c3,1,5.5,2.3,7.4,4,1.9,1.7,3.4,3.7,4.3,5.9,1,2.3,1.4,4.7,1.4,7.4,0,6.1-2,10.5-5.9,13.3-3.9,2.7-9.4,4.1-16.4,4.1h-15.4v13.7h-10.4ZM100.3,78.6c-4.4,0-7.8,1-10.2,2.9-2.4,1.9-3.6,4.9-3.6,8.9v5.4h15.5c3.7,0,6.5-.6,8.6-1.9,2-1.2,3.1-3.3,3.1-6.1s-1.2-5.4-3.5-7c-2.3-1.5-5.6-2.3-9.8-2.3Z"></path></g><g><path class="cls-3" d="M184.3,68.1h-38.8c-2.3,0-4.3,1.2-5.4,2.9-1.8,1.2-2.9,3.2-2.9,5.4v38.8c0,3.6,2.9,6.5,6.5,6.5h38.8c2.3,0,4.3-1.2,5.4-2.9,1.8-1.2,2.9-3.2,2.9-5.4v-38.8c0-3.6-2.9-6.5-6.5-6.5ZM188.9,113.4c0,1.1-.4,2.1-1,2.9-.4.5-.9.9-1.4,1.1-.6.3-1.4.5-2.2.5h-38.8c-2.5,0-4.6-2.1-4.6-4.6v-38.8c0-.8.2-1.5.5-2.2.3-.5.7-1,1.1-1.4.8-.6,1.8-1,2.9-1h38.8c2.5,0,4.6,2.1,4.6,4.6v38.8Z"></path><path class="cls-1" d="M188.9,74.6v38.8c0,1.1-.4,2.1-1,2.9-.4.5-.9.9-1.4,1.1-.6.3-1.4.5-2.2.5h-38.8c-2.5,0-4.6-2.1-4.6-4.6v-38.8c0-.8.2-1.5.5-2.2.3-.5.7-1,1.1-1.4.8-.6,1.8-1,2.9-1h38.8c2.5,0,4.6,2.1,4.6,4.6Z"></path></g><g><path class="cls-3" d="M249.5,68.1h-38.8c-2.3,0-4.3,1.2-5.4,2.9-1.8,1.2-2.9,3.2-2.9,5.4v38.8c0,3.6,2.9,6.5,6.5,6.5h38.8c2.3,0,4.3-1.2,5.4-2.9,1.8-1.2,2.9-3.2,2.9-5.4v-38.8c0-3.6-2.9-6.5-6.5-6.5ZM254.1,113.4c0,1.1-.4,2.1-1,2.9-.4.5-.9.9-1.4,1.1-.6.3-1.4.5-2.2.5h-38.8c-2.5,0-4.6-2.1-4.6-4.6v-38.8c0-.8.2-1.5.5-2.2.3-.5.7-1,1.1-1.4.8-.6,1.8-1,2.9-1h38.8c2.5,0,4.6,2.1,4.6,4.6v38.8Z"></path><path class="cls-1" d="M254.1,74.6v38.8c0,1.1-.4,2.1-1,2.9-.4.5-.9.9-1.4,1.1-.6.3-1.4.5-2.2.5h-38.8c-2.5,0-4.6-2.1-4.6-4.6v-38.8c0-.8.2-1.5.5-2.2.3-.5.7-1,1.1-1.4.8-.6,1.8-1,2.9-1h38.8c2.5,0,4.6,2.1,4.6,4.6Z"></path></g><path class="cls-2" d="M181.6,88.7l-2.7,18.7c0,.3-.3.4-.5.4h-27.1c-.3,0-.5-.2-.5-.4l-2.7-18.7c-.2-1,.4-2,1.4-2.2.5,0,.9,0,1.3.2l2.4,1.5c2.1,1.3,4.8.7,6.2-1.4l3.9-5.8c.4-.5.9-.8,1.5-.8s1.2.3,1.5.8l3.9,5.9c1.3,2,4.1,2.7,6.2,1.4l2.4-1.5c.4-.2.9-.3,1.3-.2,1,.2,1.7,1.2,1.4,2.2Z"></path><path id="path5460" class="cls-2" d="M222.9,76.8l-4.4,8.8,9.8.6-1.8-3c5.1-1.6,10.8.4,13.8,4.9,3.3,4.9,2.7,11.5-1.5,15.7-4.2,4.2-10.8,4.8-15.7,1.5-4.9-3.3-6.8-9.6-4.5-15.1.4-1,0-2.1-1-2.5,0,0,0,0,0,0-1-.4-2.1,0-2.5,1,0,0,0,0,0,0-3,7.1-.6,15.4,5.8,19.7,6.4,4.3,15,3.5,20.5-2,5.5-5.5,6.3-14.1,1.9-20.5-4.2-6.1-12-8.6-18.9-6.1l-1.7-3Z"></path></svg>